<svg width="224" height="109" viewBox="0 0 224 109" fill="none" xmlns="http://www.w3.org/2000/svg">
<path fill-rule="evenodd" clip-rule="evenodd" d="M78.559 41.0194C84.636 47.4808 87.9439 55.594 87.9439 64.1975C87.9439 82.8102 72.203 98.1527 52.1601 99.8537C46.0831 93.3923 42.7772 85.2791 42.7772 76.6757C42.7772 58.0611 58.5142 42.7186 78.559 41.0194ZM82.2699 32.7428C55.5145 32.7428 33.8245 52.4116 33.8245 76.6739C33.8167 82.5376 35.1071 88.343 37.6193 93.7461C40.1314 99.1492 43.8142 104.04 48.4492 108.129C75.2046 108.129 96.8946 88.4597 96.8946 64.1975C96.8946 51.8669 91.2943 40.7224 82.2699 32.7428Z" fill="#0CC988"/>
<path fill-rule="evenodd" clip-rule="evenodd" d="M125.906 53.5029L119.866 47.2646H118.43V53.5029H113.492V35.3294H123.635C127.972 35.3294 130.843 37.7158 130.843 41.2689C130.843 44.2527 128.809 46.3948 125.578 47.0467L131.861 53.5029H125.906ZM123.094 43.5217C124.859 43.5217 125.997 42.6519 125.997 41.3251C125.997 40.023 124.859 39.1549 123.094 39.1549H118.43V43.5199L123.094 43.5217ZM149.22 46.6935C149.22 51.0076 145.449 53.8807 140.994 53.8807C136.448 53.8807 132.679 51.0076 132.679 46.6935C132.679 42.4094 136.448 39.5345 140.992 39.5345C145.449 39.5345 149.22 42.4094 149.22 46.6935ZM144.612 46.6935C144.612 44.5796 142.848 43.1685 140.994 43.1685C139.048 43.1685 137.285 44.5796 137.285 46.6935C137.285 48.8374 139.048 50.2203 140.994 50.2203C142.848 50.2203 144.612 48.8374 144.612 46.6935ZM158.372 58.1139H153.198L155.62 53.0425L149.398 39.8578H154.545L158.103 47.8076L161.903 39.8578H167.046L158.372 58.1139ZM184.056 53.5029H179.269V52.4186C178.103 53.3675 176.549 53.9088 174.605 53.9088C170.627 53.9088 167.274 51.0076 167.274 46.6953C167.274 42.4076 170.627 39.48 174.605 39.48C176.549 39.48 178.103 40.023 179.271 40.9719V39.886H184.058L184.056 53.5029ZM179.269 46.6953C179.269 44.6042 177.535 43.1685 175.591 43.1685C173.499 43.1685 171.974 44.6059 171.974 46.6953C171.974 48.811 173.499 50.2203 175.591 50.2203C177.535 50.2203 179.269 48.811 179.269 46.6953ZM187.561 53.5029H192.348V33.9728H187.561V53.5029ZM118.43 69.1423H127.822V73.0469H118.43V79.5575H113.494V61.3841H128.987V65.3168H118.43V69.1423ZM131.188 79.5593H135.975V60.0293H131.188V79.5593ZM155.091 72.75C155.091 77.0622 151.32 79.9371 146.865 79.9371C142.319 79.9371 138.55 77.0622 138.55 72.75C138.55 68.464 142.319 65.5874 146.863 65.5874C151.32 65.5874 155.091 68.464 155.091 72.75ZM150.483 72.75C150.483 70.6342 148.72 69.2232 146.865 69.2232C144.92 69.2232 143.156 70.6342 143.156 72.75C143.156 74.8938 144.92 76.275 146.865 76.275C148.718 76.275 150.483 74.892 150.483 72.75ZM168.714 65.8598L168.505 70.2002H167.637C164.29 70.2002 162.463 71.7729 162.463 75.2997V79.5558H157.68V65.9406H162.467V68.5449C163.542 66.9177 165.187 65.7509 167.641 65.7509C168.059 65.7509 168.356 65.779 168.714 65.8598ZM186.685 79.5575H181.899V78.4715C180.732 79.4222 179.178 79.9652 177.233 79.9652C173.256 79.9652 169.904 77.0622 169.904 72.75C169.904 68.4623 173.256 65.533 177.233 65.533C179.178 65.533 180.732 66.0777 181.899 67.0266V65.9406H186.685V79.5575ZM181.899 72.75C181.899 70.6588 180.165 69.2232 178.221 69.2232C176.126 69.2232 174.603 70.6606 174.603 72.75C174.603 74.8657 176.126 76.275 178.221 76.275C180.165 76.275 181.899 74.8657 181.899 72.75ZM131.77 105.612H126.865V98.4251H118.428V105.612H113.494V87.4388H118.428V94.5187H126.865V87.4388H131.77V105.612ZM150.937 98.8046C150.937 103.117 147.168 105.992 142.711 105.992C138.164 105.992 134.395 103.117 134.395 98.8046C134.395 94.5187 138.164 91.6439 142.711 91.6439C147.168 91.6439 150.937 94.5187 150.937 98.8046ZM146.33 98.8046C146.33 96.6889 144.565 95.2779 142.711 95.2779C140.767 95.2779 139.002 96.6889 139.002 98.8046C139.002 100.948 140.767 102.33 142.711 102.33C144.565 102.33 146.33 100.947 146.33 98.8046ZM153.562 105.612H158.347V86.0822H153.562V105.612ZM161.8 105.612H166.586V86.0822H161.8V105.612ZM185.992 105.61H181.205V104.528C180.039 105.477 178.485 106.02 176.539 106.02C172.561 106.02 169.212 103.117 169.212 98.8046C169.212 94.517 172.561 91.5894 176.539 91.5894C178.485 91.5894 180.039 92.1324 181.205 93.0813V91.9953H185.992V105.61ZM181.205 98.8046C181.205 96.7135 179.471 95.2779 177.527 95.2779C175.435 95.2779 173.908 96.7153 173.908 98.8046C173.908 100.92 175.433 102.33 177.527 102.33C179.471 102.33 181.205 100.92 181.205 98.8046ZM204.725 97.2583V105.61H199.969V98.1773C199.969 96.5782 198.923 95.494 197.398 95.494C195.512 95.494 194.288 96.659 194.288 99.2896V105.61H189.501V91.9936H194.288V93.2939C195.421 92.2115 197.008 91.5876 198.892 91.5876C202.391 91.5876 204.725 93.8387 204.725 97.2583ZM224 105.61H219.214V104.528C218.047 105.477 216.493 106.02 214.547 106.02C210.569 106.02 207.221 103.117 207.221 98.8046C207.221 94.517 210.569 91.5894 214.547 91.5894C216.493 91.5894 218.047 92.1324 219.214 93.0813V86.0822H224V105.61ZM219.214 98.8046C219.214 96.7135 217.479 95.2779 215.536 95.2779C213.443 95.2779 211.916 96.7153 211.916 98.8046C211.916 100.92 213.441 102.33 215.536 102.33C217.479 102.33 219.214 100.92 219.214 98.8046Z" fill="black"/>
<path fill-rule="evenodd" clip-rule="evenodd" d="M44.783 20.2663H52.106V0H44.783V20.2663ZM31.5419 22.8969L26.4047 6.64766L33.4468 4.81661L38.582 21.0659L31.5419 22.8969ZM19.5642 28.7661L11.6386 17.2649L17.8512 13.7452L25.7749 25.2463L19.5642 28.7661ZM65.4111 22.8969L58.3729 21.0659L63.5101 4.81661L70.5502 6.64766L65.4111 22.8969ZM77.3906 28.7661L71.1799 25.2463L79.1056 13.7452L85.3163 17.2649L77.3906 28.7661ZM14.6247 32.7445C9.98943 36.8329 6.30652 41.7237 3.79436 47.1268C1.2822 52.5299 -0.008073 58.3355 3.80044e-05 64.1992C3.80044e-05 88.4597 21.69 108.127 48.4455 108.127C53.0811 104.039 56.7643 99.148 59.2765 93.7448C61.7887 88.3416 63.0787 82.5359 63.0702 76.6721C63.0702 52.4098 41.3802 32.741 14.6247 32.741M18.3337 41.0176C38.3785 42.7169 54.1175 58.0594 54.1175 76.6721C54.1175 85.2774 50.8115 93.3888 44.7365 99.852C24.6917 98.1509 8.95275 82.8084 8.95275 64.1974C8.95275 55.5922 12.2587 47.4808 18.3337 41.0176Z" fill="#3A4D41"/>
</svg>
