<svg width="272" height="124" viewBox="0 0 272 124" fill="none" xmlns="http://www.w3.org/2000/svg">
<path fill-rule="evenodd" clip-rule="evenodd" d="M95.393 46.7097C102.772 54.0674 106.789 63.3061 106.789 73.1031C106.789 94.2979 87.675 111.769 63.3372 113.706C55.958 106.348 51.9437 97.1093 51.9437 87.3123C51.9437 66.1156 71.0529 48.6447 95.393 46.7097ZM99.8992 37.2849C67.4104 37.2849 41.0726 59.6823 41.0726 87.3103C41.0631 93.9875 42.63 100.598 45.6805 106.751C48.731 112.904 53.2029 118.473 58.8311 123.129C91.3199 123.129 117.658 100.731 117.658 73.1031C117.658 59.062 110.857 46.3715 99.8992 37.2849Z" fill="#0CC988"/>
<path fill-rule="evenodd" clip-rule="evenodd" d="M152.885 60.925L145.551 53.8214H143.807V60.925H137.812V40.2305H150.128C155.394 40.2305 158.881 42.9478 158.881 46.9939C158.881 50.3916 156.41 52.8309 152.488 53.5732L160.116 60.925H152.885ZM149.471 49.5592C151.615 49.5592 152.996 48.5687 152.996 47.0579C152.996 45.5752 151.615 44.5867 149.471 44.5867H143.807V49.5572L149.471 49.5592ZM181.195 53.171C181.195 58.0835 176.616 61.3552 171.206 61.3552C165.686 61.3552 161.109 58.0835 161.109 53.171C161.109 48.2926 165.686 45.0189 171.204 45.0189C176.616 45.0189 181.195 48.2926 181.195 53.171ZM175.6 53.171C175.6 50.7638 173.458 49.157 171.206 49.157C168.844 49.157 166.703 50.7638 166.703 53.171C166.703 55.6123 168.844 57.1871 171.206 57.1871C173.458 57.1871 175.6 55.6123 175.6 53.171ZM192.309 66.1756H186.026L188.967 60.4007L181.412 45.3871H187.661L191.982 54.4397L196.596 45.3871H202.841L192.309 66.1756ZM223.496 60.925H217.684V59.6903C216.268 60.7709 214.38 61.3872 212.02 61.3872C207.19 61.3872 203.119 58.0835 203.119 53.173C203.119 48.2906 207.19 44.9569 212.02 44.9569C214.38 44.9569 216.268 45.5752 217.687 46.6557V45.4191H223.499L223.496 60.925ZM217.684 53.173C217.684 50.7918 215.578 49.157 213.218 49.157C210.677 49.157 208.825 50.7938 208.825 53.173C208.825 55.5823 210.677 57.1871 213.218 57.1871C215.578 57.1871 217.684 55.5823 217.684 53.173ZM227.753 60.925H233.565V38.6857H227.753V60.925ZM143.807 78.734H155.213V83.1803H143.807V90.5941H137.814V69.8995H156.627V74.3778H143.807V78.734ZM159.3 90.5961H165.112V68.3567H159.3V90.5961ZM188.325 82.8421C188.325 87.7526 183.746 91.0263 178.336 91.0263C172.816 91.0263 168.239 87.7526 168.239 82.8421C168.239 77.9616 172.816 74.686 178.334 74.686C183.746 74.686 188.325 77.9616 188.325 82.8421ZM182.729 82.8421C182.729 80.4329 180.588 78.8261 178.336 78.8261C175.974 78.8261 173.832 80.4329 173.832 82.8421C173.832 85.2834 175.974 86.8561 178.336 86.8561C180.586 86.8561 182.729 85.2814 182.729 82.8421ZM204.867 74.9961L204.613 79.9386H203.559C199.495 79.9386 197.276 81.7295 197.276 85.7456V90.592H191.469V75.0882H197.281V78.0537C198.587 76.2007 200.584 74.8721 203.563 74.8721C204.072 74.8721 204.432 74.9041 204.867 74.9961ZM226.689 90.5941H220.877V89.3574C219.461 90.44 217.574 91.0583 215.211 91.0583C210.383 91.0583 206.312 87.7526 206.312 82.8421C206.312 77.9596 210.383 74.6239 215.211 74.6239C217.574 74.6239 219.461 75.2443 220.877 76.3248V75.0882H226.689V90.5941ZM220.877 82.8421C220.877 80.4609 218.771 78.8261 216.411 78.8261C213.868 78.8261 212.018 80.4629 212.018 82.8421C212.018 85.2513 213.868 86.8561 216.411 86.8561C218.771 86.8561 220.877 85.2513 220.877 82.8421ZM160.006 120.263H154.05V112.079H143.805V120.263H137.814V99.5686H143.805V107.631H154.05V99.5686H160.006V120.263ZM183.28 112.511C183.28 117.422 178.703 120.695 173.291 120.695C167.771 120.695 163.194 117.422 163.194 112.511C163.194 107.631 167.771 104.357 173.291 104.357C178.703 104.357 183.28 107.631 183.28 112.511ZM177.687 112.511C177.687 110.102 175.543 108.495 173.291 108.495C170.931 108.495 168.788 110.102 168.788 112.511C168.788 114.952 170.931 116.525 173.291 116.525C175.543 116.525 177.687 114.95 177.687 112.511ZM186.468 120.263H192.278V98.0238H186.468V120.263ZM196.471 120.263H202.283V98.0238H196.471V120.263ZM225.847 120.261H220.035V119.029C218.618 120.109 216.731 120.727 214.369 120.727C209.538 120.727 205.472 117.422 205.472 112.511C205.472 107.629 209.538 104.295 214.369 104.295C216.731 104.295 218.618 104.913 220.035 105.994V104.757H225.847V120.261ZM220.035 112.511C220.035 110.13 217.929 108.495 215.569 108.495C213.027 108.495 211.173 110.132 211.173 112.511C211.173 114.92 213.025 116.525 215.569 116.525C217.929 116.525 220.035 114.92 220.035 112.511ZM248.594 110.75V120.261H242.82V111.797C242.82 109.976 241.549 108.741 239.697 108.741C237.408 108.741 235.92 110.068 235.92 113.063V120.261H230.108V104.755H235.92V106.236C237.297 105.003 239.224 104.293 241.511 104.293C245.761 104.293 248.594 106.856 248.594 110.75ZM272 120.261H266.188V119.029C264.771 120.109 262.884 120.727 260.522 120.727C255.691 120.727 251.625 117.422 251.625 112.511C251.625 107.629 255.691 104.295 260.522 104.295C262.884 104.295 264.771 104.913 266.188 105.994V98.0238H272V120.261ZM266.188 112.511C266.188 110.13 264.082 108.495 261.722 108.495C259.18 108.495 257.326 110.132 257.326 112.511C257.326 114.92 259.178 116.525 261.722 116.525C264.082 116.525 266.188 114.92 266.188 112.511Z" fill="black"/>
<path fill-rule="evenodd" clip-rule="evenodd" d="M54.3794 23.0777H63.2716V0H54.3794V23.0777ZM38.3009 26.0733L32.0629 7.56985L40.6139 5.48479L46.8496 23.9882L38.3009 26.0733ZM23.7566 32.7567L14.1326 19.66L21.6765 15.652L31.2982 28.7486L23.7566 32.7567ZM79.4277 26.0733L70.8814 23.9882L77.1194 5.48479L85.6681 7.56985L79.4277 26.0733ZM93.9744 32.7567L86.4328 28.7486L96.0568 15.652L103.598 19.66L93.9744 32.7567ZM17.7586 37.287C12.13 41.9425 7.65792 47.5117 4.60744 53.6644C1.55696 59.8171 -0.00980293 66.428 4.61483e-05 73.1052C4.61483e-05 100.731 26.3379 123.127 58.8267 123.127C64.4557 118.471 68.9281 112.902 71.9786 106.749C75.0291 100.597 76.5956 93.9856 76.5852 87.3084C76.5852 59.6803 50.2474 37.283 17.7586 37.283M22.2624 46.7077C46.6025 48.6427 65.7141 66.1136 65.7141 87.3084C65.7141 97.1074 61.6997 106.344 54.3229 113.704C29.9828 111.767 10.8712 94.2959 10.8712 73.1032C10.8712 63.3042 14.8855 54.0675 22.2624 46.7077Z" fill="#3A4D41"/>
</svg>
